# xmcd CD database file
#
# Track frame offsets:
#	156
#	20829
#	34415
#	54776
#	77078
#	103940
#	125238
#	138698
#	144849
#	162764
#	178224
#	199041
#
# Disc length: 2894 seconds
#
# Revision: 0
# Processed by: cddbd v1.5.2PL0 Copyright (c) Steve Scherf et al.
# Submitted via: CDex 1.82
#
DISCID=ae0b4c0c
DTITLE=Peter Prince - Light Dance
DYEAR=1900
DGENRE=New Age
TTITLE0=Light Dance
TTITLE1=Rsiky Wisdom
TTITLE2=Absolutely Free
TTITLE3=Ocean Starflower
TTITLE4=Orion Storm
TTITLE5=Frogs and Roses
TTITLE6=Mt Maxwell Sunrise
TTITLE7=Seeker
TTITLE8=Echoes Orcas
TTITLE9=Seeds
TTITLE10=Lekha's Dance
TTITLE11=Cedar Tree
EXTD=
EXTT0=
EXTT1=
EXTT2=
EXTT3=
EXTT4=
EXTT5=
EXTT6=
EXTT7=
EXTT8=
EXTT9=
EXTT10=
EXTT11=
PLAYORDER=
